<?xml version="1.0" encoding="UTF-8"?>
<svg id="Layer_1" data-name="Layer 1" xmlns="http://www.w3.org/2000/svg" xmlns:xlink="http://www.w3.org/1999/xlink" viewBox="0 0 1080 1080">
  <defs>
    <style>
      .cls-1 {
        fill: #000;
      }

      .cls-1, .cls-2, .cls-3 {
        stroke-width: 0px;
      }

      .cls-4 {
        clip-path: url(#clippath-2);
      }

      .cls-5 {
        clip-path: url(#clippath-6);
      }

      .cls-2 {
        fill: none;
      }

      .cls-6 {
        clip-path: url(#clippath-7);
      }

      .cls-7 {
        clip-path: url(#clippath-1);
      }

      .cls-8 {
        clip-path: url(#clippath-4);
      }

      .cls-3 {
        fill: red;
      }

      .cls-9 {
        clip-path: url(#clippath);
      }

      .cls-10 {
        clip-path: url(#clippath-3);
      }

      .cls-11 {
        clip-path: url(#clippath-8);
      }

      .cls-12 {
        clip-path: url(#clippath-5);
      }
    </style>
    <clipPath id="clippath">
      <rect class="cls-2" x="185.33" y="349.88" width="736" height="374.67"/>
    </clipPath>
    <clipPath id="clippath-1">
      <rect class="cls-2" x="365.48" y="183.43" width="378" height="736" transform="translate(-24.63 1076.93) rotate(-87.06)"/>
    </clipPath>
    <clipPath id="clippath-2">
      <rect class="cls-2" x="365.48" y="183.43" width="378" height="736" transform="translate(-24.63 1076.93) rotate(-87.06)"/>
    </clipPath>
    <clipPath id="clippath-3">
      <rect class="cls-2" x="365.48" y="183.43" width="378" height="736" transform="translate(-24.63 1076.93) rotate(-87.06)"/>
    </clipPath>
    <clipPath id="clippath-4">
      <rect class="cls-2" x="245.33" y="803.12" width="605.33" height="31"/>
    </clipPath>
    <clipPath id="clippath-5">
      <rect class="cls-2" x="158.67" y="245.88" width="161.33" height="134.67"/>
    </clipPath>
    <clipPath id="clippath-6">
      <rect class="cls-2" x="162.96" y="236.19" width="151" height="145" transform="translate(-126.25 170.36) rotate(-31.54)"/>
    </clipPath>
    <clipPath id="clippath-7">
      <rect class="cls-2" x="162.96" y="236.19" width="151" height="145" transform="translate(-126.25 170.36) rotate(-31.54)"/>
    </clipPath>
    <clipPath id="clippath-8">
      <rect class="cls-2" x="162.96" y="236.19" width="151" height="145" transform="translate(-126.25 170.36) rotate(-31.54)"/>
    </clipPath>
  </defs>
  <g class="cls-9">
    <g class="cls-7">
      <g class="cls-4">
        <g class="cls-10">
          <path class="cls-1" d="M339.83,362.63c-28.16,14.86-40.99,34.22-37.51,52.94,2.93,14.97,14.08,42.98,23.45,76.83,30.75-22.15,58.98-38.49,87.68-49.63,2.29-1.36,11.23-2.39,14.15-1.49,5.79,2.52-1.74,5.1-6.29,7.09-24.86,8.36-57.09,30.44-91.83,58.31,7.34,30.03,13.06,62.95,11.31,96.96-4.02,78.39-72.17,122.34-114.99,120.15-60.55-3.11-58.98-91.26,45.04-185.27,14.75-13.33,28.69-25.22,41.81-35.67-8.12-29.33-18.53-57.3-22.6-79.01-8.99-41.24,19.22-71.67,41.49-72.76,17.09-1.35,15.86,8.23,8.29,11.55ZM327.99,593.35c1.26-24.41-4.06-50.63-10.9-76.19l-33.34,29.43c-93.97,85.63-96.44,162.61-64.69,164.24,47.26,2.43,105.44-49.45,108.93-117.48ZM427.85,522.84c6.55-12.27,14.51-22.98,21.61-31.52-3.51-3.89-7.01-7.77-8.96-13.06-11.85-28.78,14.23-60.81,46.71-59.14,32.49,1.67,50.87,33.01,48.48,79.59l-.11,2.22c2.95.15,5.91.3,9.64-.24,37.07-1.07,106.65-15.29,138.23-24.79,5.28-1.95,8.56,6.37,4.79,7.66-16.58,5.82-102.16,28.87-145.92,30.33-2.99.59-5.95.44-8.16.32-10.29,70.65-65.67,125.64-99.64,123.9-33.23-1.71-39.17-59.1-6.68-115.27ZM432.26,624.64c33.22,1.7,75.68-46.54,85.66-111.27-19.94-1.02-41.2-5.08-56.32-13.27-6.33,7.83-13.46,17.1-19.13,26.45-30.86,53.29-24.24,97.37-10.21,98.09ZM489.85,468.93c-.08,1.48-8.58,8.46-18.79,19.8,12.99,6.6,30.56,10.46,49.02,11.41l.38-7.4c1.97-38.45-15.42-60.1-36.1-61.16-19.94-1.03-39.38,17.26-30.18,39.97,1.29,3.78,3.39,6.1,5.45,9.18,11.68-11.27,21.63-17.43,23.84-17.31,4.43.23,6.53,2.56,6.38,5.52ZM613.87,547.95c-1.34-17.12,11.65-39.44,39.37-60.26,24.65-18.76,43.3-21.51,55.85-20.86,16.98.88,14.56,19.29,7.32,15.95-9.41-4.19-28.02-2.18-52.56,14.35-24.54,16.54-34.31,33.83-34.22,46.44-.06,15.57,22.49,23.4,47.01,21.69,54.94-3.11,178.15-52.4,232.02-77.81,3.8-2.03,19.27-.49,7.04,7.03-57.2,32.66-184.65,78.02-235.23,82.84-34.97,3.4-64.2-4.04-66.6-29.37Z"/>
        </g>
      </g>
    </g>
  </g>
  <g class="cls-8">
    <path class="cls-3" d="M246.54,829.44c-1.11-2.06,1.71-3.57,3.02-1.51.66,1.06,2.62,2.87,5.74,2.87,1.31,0,4.59-.96,5.04-4.68.3-2.26-1.86-4.48-5.59-6.34-5.24-2.47-9.22-4.63-9.22-8.96,0-5.14,4.33-7.55,8.97-7.55,4.18,0,6.5,2.56,7.31,3.88,1.16,1.86-1.36,3.67-2.77,1.86-.7-.91-2.07-2.42-4.54-2.42-2.77,0-5.64,1.31-5.64,4.23,0,2.31,2.57,3.63,6.4,5.44,4.49,2.21,9.17,4.38,8.47,10.27-.56,4.63-4.08,7.6-8.42,7.6-3.28,0-7.31-1.77-8.77-4.68ZM280.65,803.47h15.22c1.06,0,1.56.86,1.56,1.71s-.51,1.66-1.56,1.66h-5.74v25.31c0,1.06-.85,1.61-1.71,1.61s-1.66-.55-1.66-1.61v-25.31h-6.1c-1.06,0-1.56-.81-1.56-1.66s.51-1.71,1.56-1.71ZM314.47,824.86v-19.78c0-1.05.85-1.61,1.66-1.61.85,0,1.66.56,1.66,1.61v19.78c0,3.62,2.47,5.79,5.9,5.79h1.26c3.53,0,5.94-2.46,5.94-5.79v-19.78c0-1.05.81-1.61,1.67-1.61.8,0,1.66.56,1.66,1.61v19.78c0,5.18-3.68,9.16-9.27,9.16h-1.26c-5.59,0-9.22-3.88-9.22-9.16ZM353.12,832.21v-27.07c0-1.36.95-1.66,1.66-1.66h8.06c6.65,0,9.93,3.17,9.93,9.41v12.89c0,3.92-3.08,8.05-9.78,8.05h-8.21c-.71,0-1.66-.41-1.66-1.61ZM369.44,825.77v-12.89c0-4.13-2.22-6.04-6.6-6.04h-6.4v23.7h6.55c3.07,0,6.45-1.66,6.45-4.78ZM391.36,832.01v-26.78c0-1.16.91-1.76,1.77-1.76h11.59c1.11,0,1.66.81,1.66,1.66s-.55,1.71-1.66,1.71h-9.98v9.76h7.91c1.16,0,1.71.81,1.71,1.66s-.6,1.76-1.71,1.76h-7.91v10.42h9.98c1.06,0,1.61.86,1.61,1.66,0,.85-.56,1.66-1.61,1.66h-11.59c-.86,0-1.77-.3-1.77-1.76ZM441.66,805.08v27.08c0,1.06-.81,1.61-1.61,1.61-.61,0-1.41-.45-1.77-1.11-3.78-7.4-6.6-13.08-10.38-20.53v20.03c0,1.06-.81,1.61-1.66,1.61-.81,0-1.67-.55-1.67-1.61v-27.08c0-1.76,2.52-1.86,3.08-.8l10.63,20.98v-20.18c0-1.05.81-1.61,1.66-1.61s1.71.56,1.71,1.61ZM460.2,803.47h15.22c1.06,0,1.56.86,1.56,1.71s-.51,1.66-1.56,1.66h-5.74v25.31c0,1.06-.86,1.61-1.71,1.61s-1.66-.55-1.66-1.61v-25.31h-6.1c-1.06,0-1.56-.81-1.56-1.66s.51-1.71,1.56-1.71ZM493.56,829.44c-1.1-2.06,1.71-3.57,3.03-1.51.66,1.06,2.62,2.87,5.74,2.87,1.31,0,4.58-.96,5.04-4.68.3-2.26-1.86-4.48-5.59-6.34-5.24-2.47-9.22-4.63-9.22-8.96,0-5.14,4.33-7.55,8.97-7.55,4.18,0,6.5,2.56,7.31,3.88,1.16,1.86-1.36,3.67-2.77,1.86-.71-.91-2.07-2.42-4.54-2.42-2.77,0-5.65,1.31-5.65,4.23,0,2.31,2.57,3.63,6.4,5.44,4.48,2.21,9.17,4.38,8.46,10.27-.55,4.63-4.08,7.6-8.41,7.6-3.28,0-7.31-1.77-8.77-4.68ZM553.53,824.86v-12.48c0-6.04,3.13-9.26,9.17-9.26h1.31c5.99,0,9.17,3.22,9.17,9.26v12.48c0,5.54-3.68,9.16-9.17,9.16h-1.31c-5.59,0-9.17-3.67-9.17-9.16ZM562.7,830.65h1.31c3.63,0,5.79-2.27,5.79-5.79v-12.48c0-3.93-1.91-5.94-5.79-5.94h-1.31c-3.83,0-5.94,2.07-5.94,5.94v12.48c0,3.67,2.32,5.79,5.94,5.79ZM591.89,832.16v-27.08c0-1.2.95-1.61,1.66-1.61h11.59c1.11,0,1.66.81,1.66,1.66s-.55,1.71-1.66,1.71h-9.93v9.76h7.91c1.11,0,1.71.85,1.71,1.71s-.6,1.71-1.71,1.71h-7.91v12.13c0,1.06-.85,1.61-1.66,1.61-.86,0-1.66-.55-1.66-1.61ZM658.15,803.37c4.58,0,9.47,1.76,9.47,6.94,0,1.21-.81,1.77-1.67,1.77s-1.76-.6-1.76-1.77c0-.4-.25-3.67-6.05-3.67-4.58,0-6.6,1.81-6.6,6.14v12.13c0,4.38,2.47,5.74,6.6,5.74s6.5-1.71,6.5-5.79c0-1.16.85-1.71,1.66-1.71.86,0,1.66.56,1.66,1.71,0,6.79-3.78,9.06-9.82,9.06-6.55,0-9.88-2.42-9.88-9.01v-12.13c0-7.15,3.58-9.41,9.88-9.41ZM701.29,832.41l-1.96-6.39h-9.38l-1.86,6.29c-.65,2.16-3.98,1.51-3.28-.7,2.63-8.81,5.19-17.77,7.76-26.67.3-.96,1.11-1.46,1.92-1.46.76,0,1.56.51,1.86,1.46l8.01,26.67c.56,1.91-2.42,2.97-3.07.8ZM694.58,810.27l-3.63,12.38h7.41c-1.26-4.23-2.42-7.85-3.78-12.38ZM739.23,805.08v27.08c0,1.06-.81,1.61-1.61,1.61-.6,0-1.41-.45-1.76-1.11-3.78-7.4-6.6-13.08-10.38-20.53v20.03c0,1.06-.81,1.61-1.67,1.61-.8,0-1.66-.55-1.66-1.61v-27.08c0-1.76,2.52-1.86,3.07-.8l10.64,20.98v-20.18c0-1.05.8-1.61,1.66-1.61s1.71.56,1.71,1.61ZM773.45,832.41l-1.96-6.39h-9.37l-1.86,6.29c-.66,2.16-3.98,1.51-3.28-.7,2.62-8.81,5.19-17.77,7.76-26.67.3-.96,1.11-1.46,1.91-1.46.76,0,1.56.51,1.86,1.46l8.02,26.67c.55,1.91-2.42,2.97-3.08.8ZM766.75,810.27l-3.63,12.38h7.41c-1.26-4.23-2.42-7.85-3.78-12.38ZM794.36,832.21v-27.07c0-1.36.96-1.66,1.66-1.66h8.06c6.65,0,9.93,3.17,9.93,9.41v12.89c0,3.92-3.07,8.05-9.78,8.05h-8.21c-.7,0-1.66-.41-1.66-1.61ZM810.69,825.77v-12.89c0-4.13-2.22-6.04-6.6-6.04h-6.4v23.7h6.55c3.07,0,6.45-1.66,6.45-4.78ZM847.48,832.41l-1.97-6.39h-9.37l-1.86,6.29c-.66,2.16-3.98,1.51-3.28-.7,2.62-8.81,5.19-17.77,7.76-26.67.3-.96,1.11-1.46,1.92-1.46.76,0,1.56.51,1.86,1.46l8.01,26.67c.55,1.91-2.42,2.97-3.07.8ZM840.78,810.27l-3.63,12.38h7.41c-1.26-4.23-2.42-7.85-3.78-12.38Z"/>
  </g>
  <g class="cls-12">
    <g class="cls-5">
      <g class="cls-6">
        <g class="cls-11">
          <path class="cls-3" d="M180.04,320.15l.08-2.97s5.73-.05,7.59.18c2.08.25,8.16,1.73,8.16,1.73l.31-8.99c5.3,1.6,8.14.28,12.32,1.48,6.47,1.88,9.72,7.33,13.57,9.09,2.01.92,7.73,1.23,7.73,1.23,0,0-2.6-4.03-4.56-5.1-5.36-2.94-11.49-4.08-14.15-5.74-2.2-1.39-2.8-1.67-7.46-4.11l1.32-2.59s-3.77-1.42-8.33-4.68c-5.79-4.15-11.47-10.63-11.47-10.63,0,0,7.44-2.53,12.12-2.36,4.96.19,10.52-.22,10.52-.22-2.57-6.05-4.6-6.7-6.79-10.43-2.15-3.66-2.59-6.51-2.59-6.51l6.09-1.02s-2.29-5.14-3.05-9.32c-.77-4.18-.12-12.79-.12-12.79,0,0,3.79,4.91,6.91,8.37,3.13,3.46,5.92,4.81,5.92,4.81l1.78-4.45c.13.22,2.01,1.73,5.93,4.43,3.67,2.52,4.78,8.11,7.2,8.49,1.29.2,1.95-4.25,4.89-8.98,3.31-5.34,6.38-12.96,6.38-12.96,0,0,5.22,9.55,7.13,16.37s-1.64,12.83.66,14.09c.81.44,2.06-.88,2.06-.88,0,0,2.06,9.28,2.11,12.43.04,2.27-1.32,6.73-1.19,9,.12,2.13,2.89,9.04,2.89,9.04,0,0,.85-3.76,2.03-8.26.95-3.62-1.34-11.49-.34-16.47,1.24-6.13,4.88-15.18,4.88-15.18,0,0,6.07,7.13,7.62,5.39,1.11-1.26-.65-.72,2.2-6.33,2.85-5.61,4.52-7.09,4.52-7.09,0,0,2.79,2.88,3.29,2.05,1.45-2.4,11.69-10.82,11.69-10.82,0,0,.93,6.03,1.31,10.78.39,4.76.27,11.73.27,11.73l5.9-.31s-.99,3.43-3.43,7.84c-2.81,5.08-3.66,5.39-2.66,7.23,1.61,2.98,12.96-.98,12.96-.98,0,0-4.69,9.92-7.85,13.86-2.74,3.44-9.53,7.23-12.59,9.64-3.06,2.41-3.16,5.38-2.21,6.93s11.7-3.18,17.48-4.35,20.21-2.61,20.21-2.61c0,0-7.09,10.97-11.65,13.88-4.56,2.9-9.26,2.9-9.29,4.7-.02.9,2.72,2.38,2.72,2.38,0,0-3.22,3.02-8.01,5.95-4.79,2.94-9.34,1.23-10.64,3.73-.69,1.35,2.8,5.39,2.8,5.39,0,0-6.14,3.43-11.22,2.58-5.08-.84-11.59-4.33-11.59-4.33l19.87,23.39-2.58,1.58-21.36-26.54s2.08,7.11-5.15,14.33c-5.3,5.29-6.67,7.93-6.67,7.93,0,0-2.43-4.45-4.13-4.46-2.61-.02-3.88,3.53-6.99,7.2s-7.68,4.9-7.68,4.9c0,0,1.05-2.61,0-2.74-1-.13-4.55,3.66-8.41,5.93-4.22,2.5-12.26,5.23-12.26,5.23,0,0,3.45-9.07,5.54-14.57,2.09-5.49,10.92-15.62,10.92-15.62,0,0-1.73-1.59-5.48.57-3.74,2.16-12.16,5.59-18.4,6.99-6.24,1.4-12.33-2.12-12.33-2.12.13-.19.4-1.93,2.06-4.58,1.4-2.25,4.12-3.68,4.11-5.34,0-1.25-6.16-1.64-8.3-2.22-2.79-.75-9.87-4.61-9.87-4.61,0,0,3.77-1.67,3.77-2.85,0-2.55-1.57-1.08-6.8-5.09-2.01-1.53-4.34-4.15-6.19-5.74-2.96-2.55-7.27-3.17-7.27-3.17,0,0,3.55-2.69,7.66-2.41,2.99.2,13.59.68,13.59.68ZM180.68,327.39c1.7.91,3.21,1.71,3.21,1.71l-2.1,2.57,3.66-2.51,7.89,2.53s-1.28,2.76-2.89,3.55c-1.6.8-4.92,2.85-4.92,2.85,0,0,3.98-.75,5.72-1.94s3.76-4.21,3.76-4.21l7.68,1.77s-1.4,3.91-2.5,5.22c-1.09,1.31-3.95,3.06-3.95,3.06,0,0,2.82-.78,4.31-2.27,1.49-1.49,4.03-6.04,4.03-6.04l14.79,2.61s-5.73,6.57-9.92,9.46c-4.19,2.89-9.75,4.46-9.75,4.46,0,0,5.73-.47,10.66-3.81s10.84-10.22,10.84-10.22l10.6,2.2s-1.02,1.84-4.7,4.22c3.96-.46,6.05-4.38,6.05-4.38,0,0,2.82.41,6.83.67s12.55.82,12.55.82c0,0-5.36,5.52-8.34,7.28-2.97,1.76-4.45,1.84-7.55,3.61-3.09,1.78-9.04,6.95-9.04,6.95,0,0-3.22-.7-4.62-.09-1.4.6-3.88,3.4-3.88,3.4,0,0,1.72-1.44,3.7-2.02,1.99-.58,3.86.3,3.86.3l-4.53,4.81s-2.91,2.17-4.76,3.81c-1.85,1.64-3.9,5.32-3.9,5.32,0,0,2.59-2.76,4.3-4.32,1.7-1.56,4.93-3.57,4.93-3.57,0,0,.95,1.28.08,2.96,2.38-1.91.93-3.9.93-3.9,0,0,2.89-3.42,4.43-4.76,1.54-1.34,3.47-3.02,3.47-3.02,0,0,.01.51.39,2.45.38,1.94-.69,3.3-.69,3.3,0,0,2.23-1.14,2.1-3.09-.14-1.95-.27-3.86-.27-3.86,0,0,1.85-1.74,4.25-2.99,2.4-1.25,4.68-2.31,7.21-4.17,2.52-1.85,6.38-4.68,6.38-4.68,0,0,.03.56.25,2.27.22,1.71-.66,5.74-.66,5.74,0,0,2.41-4.58,2.42-6.19.01-1.6.03-4.08.03-4.08l1.33-.94s1.94-.48,2.56-.28c.46.16,1.44,1.34,1.44,1.34l3.54,1.76-3.04-3.52,1.09-1.97s6.83-1.58,9.24-2.49c2.42-.91,5.42-2.95,5.42-2.95,0,0,2.37,3.25,6.18,2.44-3.91-1.73-4.97-3.56-4.97-3.56l13.3-6.64s3.67,1.44,5.55.16c-2.8-.44-3.78-.99-3.78-.99,0,0,9.8-6.03,12.02-7.18,2.21-1.16,6.63-2.42,6.63-2.42,0,0-4.23.05-7.32,1.71-3.09,1.65-9.3,6.02-9.3,6.02,0,0-.45-1.76.48-3.34.93-1.59,4.31-3.92,4.31-3.92,0,0-4.71,2.13-5.54,3.78-.82,1.65-1.13,3.74-1.13,3.74l-10.88,5.41s-2.27-2.65-1.28-6.21c-2.42,2.57.07,6.32.07,6.32,0,0-4.5,3.2-8.47,5.2s-10.2,3.21-10.2,3.21l5.89-17.47s3.78-.03,4.9-1.73c-2.91.64-4.21.17-4.21.17l2.91-9.92s4.75-.65,9.86-3.13c6.49-3.16,10.95-7.36,10.95-7.36,0,0-6.03,3.7-10.65,5.9-4.61,2.2-9.83,2.85-9.83,2.85l5.13-12.68s7.77-1.59,9.17-3.97c-4.86,2.09-8.94,2.69-8.94,2.69l1.05-4.08s4.84-2.02,8.22-4.16c3.38-2.14,5-5.32,5-5.32,0,0-3.11,2.76-5.89,4.53-2.78,1.77-7.27,3.7-7.27,3.7,0,0,2.3-9.17,3.19-13.08s6.17-14.85,6.17-14.85c0,0-6.45,10.77-7.46,15.01-1.01,4.24-4.21,17.72-4.21,17.72l-3.93,8.26s-4.02-5.55-5.58-8.46c-1.74-3.26-3.06-6.61-3.58-15.54,0,0-.76,8.79,2.65,15.67,2.39,4.84,6.13,9.98,6.13,9.98l-2.82,7.77s-1.66-1.66-3.36-4.43c-1.7-2.77-3.7-7.26-3.7-7.26,0,0,.84,4.57,2.69,7.69,1.85,3.13,4.28,6.15,4.28,6.15l-9.61,26.49-11.98-19.73s2.68-3.48,1.35-5.02c-1.03,3.02-2.68,3.68-2.68,3.68l-5.21-8.49-3.58-8.61,2.43-12.04s8.54-4.48,7.95-7.3c-3.61,4.13-7.77,5.53-7.77,5.53,0,0,.7-11.14,1.03-15.26.49-6.22,2.38-12.65,2.38-12.65,0,0-2.58,5.21-3.71,12.96-.56,3.83-1.21,17.03-1.21,17.03l-2.42,10.51-7.16-11.24-8.46-11.72s.76-3.2.92-5.53c.16-2.32-.72-4.27-.72-4.27,0,0,.11,2.02-.2,4.32-.35,2.57-1.06,4.15-1.06,4.15,0,0-3.92-3.45-5.22-5.19-1.29-1.74-4.48-7.1-4.48-7.1,0,0,2.47,5.99,3.89,7.79,1.42,1.79,5.45,6.19,5.45,6.19,0,0-2.5.26-4.9.08-2.39-.18-7.36-2.09-7.36-2.09,0,0,4.49,3.09,7.29,3.41,2.8.32,6.64,0,6.64,0l6.07,9.88s-2.27,1.52-8.16.81c4.62,2.89,9.3.39,9.3.39l7.92,12.18,2.39,6.17s-8.89-1.32-14.38-3.39c-5.49-2.07-23.75-8.94-23.75-8.94l21.03,9.61s-.26,1.43-5.55,2.83c5.9,0,7.44-1.97,7.44-1.97l16.42,3.9,5.99,10.7s-2.33.54-4.47.67c-1.99.13-4.52-.34-4.52-.34,0,0,2.94,1.31,4.81,1.34,1.88.03,5.25.08,5.25.08l11.74,18.09s-17.52-1.07-23.15-1.56c-5.63-.49-13.92-2.65-13.92-2.65,0,0-4.54-8.21-6.58-10.71-2.04-2.5-8.19-6.38-8.19-6.38,0,0,5.44,4.57,7.31,6.79,1.88,2.22,6.41,10.44,6.41,10.44l-7.1-1.24-8.53-1.51s-.48-2-1.76-4.08-3.56-3.56-3.56-3.56c2.96,3.27,1.97,2.64,2.64,3.72.96,1.57,1.13,3.66,1.13,3.66l-6.76-1.51s-1.58-2.78-3.06-4.98c-1.48-2.21-3.45-2.74-3.45-2.74,0,0,1.42,1.07,2.58,2.77,1.17,1.7,2.28,4.96,2.28,4.96,0,0-9.32-2.63-10.9-3.1-1.58-.48-10.66-3.07-10.66-3.07,0,0,8.09,2.82,9.79,3.73Z"/>
        </g>
      </g>
    </g>
  </g>
</svg>